<?xml version="1.0" standalone="no"?>
<!DOCTYPE svg PUBLIC "-//W3C//DTD SVG 20010904//EN"
 "http://www.w3.org/TR/2001/REC-SVG-20010904/DTD/svg10.dtd">
<svg version="1.0" xmlns="http://www.w3.org/2000/svg"
 width="700.000000pt" height="700.000000pt" viewBox="0 0 700.000000 700.000000"
 preserveAspectRatio="xMidYMid meet">
<metadata>
Created by potrace 1.11, written by Peter Selinger 2001-2013
</metadata>
<g transform="translate(0.000000,700.000000) scale(0.100000,-0.100000)"
fill="#000000" stroke="none">
<path d="M0 3495 l0 -3495 3500 0 3500 0 0 3495 0 3495 -3500 0 -3500 0 0
-3495z m3025 2956 c504 -37 826 -87 1089 -172 378 -120 669 -293 932 -551 l91
-90 69 30 c175 77 647 265 814 325 279 101 410 137 517 144 107 7 146 -5 169
-50 67 -128 -238 -510 -886 -1113 l-157 -146 34 -92 c265 -702 280 -1735 38
-2486 -183 -564 -550 -1056 -1024 -1371 -355 -236 -730 -355 -1311 -419 -363
-39 -463 -42 -1482 -47 l-1008 -5 -2 1411 -3 1410 -387 -191 c-214 -105 -391
-188 -395 -184 -4 4 3 15 16 25 30 23 571 364 684 431 l87 53 0 1554 0 1555
983 -5 c547 -3 1048 -10 1132 -16z"/>
<path d="M2280 4736 c0 -306 2 -556 4 -556 2 0 82 44 177 98 278 158 684 379
1035 564 l326 171 -39 24 c-185 115 -429 196 -708 233 -44 6 -241 14 -437 17
l-358 6 0 -557z"/>
<path d="M3256 4089 c-189 -25 -406 -81 -748 -196 l-228 -75 0 -1114 0 -1114
298 0 c163 0 351 5 417 11 883 76 1394 608 1486 1547 12 119 9 625 -3 638 -4
4 -72 -47 -150 -113 -477 -400 -1806 -1463 -1829 -1463 -24 0 3 27 159 161
205 176 618 586 734 729 181 223 287 395 339 550 28 84 31 104 27 180 -6 119
-46 189 -133 233 -69 35 -218 45 -369 26z"/>
</g>
</svg>
